<svg width="1600" height="1024" viewBox="0 0 1600 1024" fill="none" xmlns="http://www.w3.org/2000/svg">
  <defs>
    <linearGradient id="bg" x1="0" y1="0" x2="1600" y2="1024" gradientUnits="userSpaceOnUse">
      <stop stop-color="#F4EFE7"/>
      <stop offset="1" stop-color="#E7DED1"/>
    </linearGradient>
    <linearGradient id="panel" x1="0" y1="0" x2="1" y2="1">
      <stop stop-color="#1F2328"/>
      <stop offset="1" stop-color="#15191D"/>
    </linearGradient>
    <filter id="shadow" x="-20%" y="-20%" width="140%" height="140%">
      <feDropShadow dx="0" dy="18" stdDeviation="24" flood-color="#5E5243" flood-opacity="0.18"/>
    </filter>
  </defs>

  <rect width="1600" height="1024" fill="url(#bg)"/>
  <circle cx="1450" cy="140" r="220" fill="#D96C3F" fill-opacity="0.09"/>
  <circle cx="180" cy="860" r="260" fill="#7B8C6B" fill-opacity="0.08"/>

  <text x="92" y="90" fill="#1B1B1B" font-family="Georgia, serif" font-size="34" font-weight="700">CCV Web / Environment Console</text>
  <text x="94" y="122" fill="#5B554D" font-family="Arial, sans-serif" font-size="18">本机环境管理界面草图 · 目标是高效管理，不是展示型官网</text>

  <g filter="url(#shadow)">
    <rect x="72" y="160" width="1456" height="792" rx="30" fill="url(#panel)"/>
  </g>

  <rect x="72" y="160" width="300" height="792" rx="30" fill="#161A1E"/>
  <rect x="372" y="160" width="1156" height="96" rx="30" fill="#20262C"/>
  <rect x="372" y="276" width="1156" height="676" rx="30" fill="#1A1F24"/>

  <text x="110" y="215" fill="#EDE4D8" font-family="Arial, sans-serif" font-size="14" letter-spacing="2">ENVIRONMENTS</text>
  <rect x="102" y="238" width="240" height="44" rx="14" fill="#232A30"/>
  <text x="122" y="266" fill="#9CA5AF" font-family="Arial, sans-serif" font-size="15">Search env...</text>

  <rect x="102" y="304" width="240" height="112" rx="18" fill="#D96C3F"/>
  <text x="122" y="336" fill="#FFF4EC" font-family="Arial, sans-serif" font-size="14">ACTIVE</text>
  <text x="122" y="370" fill="white" font-family="Georgia, serif" font-size="30" font-weight="700">workbench</text>
  <text x="122" y="398" fill="#FFE4D3" font-family="Arial, sans-serif" font-size="15">12 resources · last updated 2m ago</text>

  <rect x="102" y="434" width="240" height="82" rx="18" fill="#232A30"/>
  <text x="122" y="470" fill="#F2ECE4" font-family="Arial, sans-serif" font-size="24" font-weight="700">demo</text>
  <text x="122" y="495" fill="#8D96A0" font-family="Arial, sans-serif" font-size="14">4 resources</text>

  <rect x="102" y="530" width="240" height="82" rx="18" fill="#232A30"/>
  <text x="122" y="566" fill="#F2ECE4" font-family="Arial, sans-serif" font-size="24" font-weight="700">prod-safe</text>
  <text x="122" y="591" fill="#8D96A0" font-family="Arial, sans-serif" font-size="14">9 resources</text>

  <rect x="102" y="626" width="240" height="82" rx="18" fill="#232A30"/>
  <text x="122" y="662" fill="#F2ECE4" font-family="Arial, sans-serif" font-size="24" font-weight="700">research</text>
  <text x="122" y="687" fill="#8D96A0" font-family="Arial, sans-serif" font-size="14">7 resources</text>

  <rect x="102" y="834" width="240" height="52" rx="16" fill="#7B8C6B"/>
  <text x="173" y="866" fill="#F8F5EF" font-family="Arial, sans-serif" font-size="18" font-weight="700">+ New Environment</text>

  <text x="410" y="214" fill="#9CA5AF" font-family="Arial, sans-serif" font-size="13" letter-spacing="2">CURRENT ENV</text>
  <text x="410" y="242" fill="#F6EFE7" font-family="Georgia, serif" font-size="40" font-weight="700">workbench</text>
  <text x="664" y="242" fill="#8D96A0" font-family="Arial, sans-serif" font-size="16">/home/user/.ccv/envs/workbench</text>

  <rect x="1230" y="188" width="120" height="40" rx="12" fill="#2B3239"/>
  <text x="1262" y="213" fill="#EAE1D6" font-family="Arial, sans-serif" font-size="15">Export</text>
  <rect x="1364" y="188" width="128" height="40" rx="12" fill="#D96C3F"/>
  <text x="1390" y="213" fill="white" font-family="Arial, sans-serif" font-size="15" font-weight="700">Import / New</text>

  <rect x="408" y="308" width="250" height="170" rx="22" fill="#222930"/>
  <text x="432" y="342" fill="#8D96A0" font-family="Arial, sans-serif" font-size="13" letter-spacing="2">LLM</text>
  <text x="432" y="386" fill="#F5EEE5" font-family="Georgia, serif" font-size="32" font-weight="700">Anthropic</text>
  <text x="432" y="414" fill="#AAB2BA" font-family="Arial, sans-serif" font-size="16">Default: claude-sonnet</text>
  <rect x="432" y="436" width="98" height="28" rx="10" fill="#31434D"/>
  <text x="458" y="455" fill="#CFE8F3" font-family="Arial, sans-serif" font-size="14">Healthy</text>

  <rect x="680" y="308" width="250" height="170" rx="22" fill="#222930"/>
  <text x="704" y="342" fill="#8D96A0" font-family="Arial, sans-serif" font-size="13" letter-spacing="2">MCP</text>
  <text x="704" y="386" fill="#F5EEE5" font-family="Georgia, serif" font-size="32" font-weight="700">3 Servers</text>
  <text x="704" y="414" fill="#AAB2BA" font-family="Arial, sans-serif" font-size="16">filesystem / github / postgres</text>
  <rect x="704" y="436" width="112" height="28" rx="10" fill="#3C4732"/>
  <text x="732" y="455" fill="#D8E9C7" font-family="Arial, sans-serif" font-size="14">Ready</text>

  <rect x="952" y="308" width="250" height="170" rx="22" fill="#222930"/>
  <text x="976" y="342" fill="#8D96A0" font-family="Arial, sans-serif" font-size="13" letter-spacing="2">SKILLS</text>
  <text x="976" y="386" fill="#F5EEE5" font-family="Georgia, serif" font-size="32" font-weight="700">12 Installed</text>
  <text x="976" y="414" fill="#AAB2BA" font-family="Arial, sans-serif" font-size="16">frontend-design / harness / ...</text>
  <rect x="976" y="436" width="126" height="28" rx="10" fill="#46392E"/>
  <text x="1004" y="455" fill="#F4DDC8" font-family="Arial, sans-serif" font-size="14">Needs review</text>

  <rect x="1224" y="308" width="266" height="170" rx="22" fill="#D96C3F"/>
  <text x="1248" y="342" fill="#FFE8DB" font-family="Arial, sans-serif" font-size="13" letter-spacing="2">ENV VARS</text>
  <text x="1248" y="386" fill="white" font-family="Georgia, serif" font-size="38" font-weight="700">24 Keys</text>
  <text x="1248" y="414" fill="#FFE0CF" font-family="Arial, sans-serif" font-size="16">OpenAI / Anthropic / custom tools</text>
  <text x="1248" y="452" fill="#FFF5EE" font-family="Arial, sans-serif" font-size="15">Sensitive values masked by default</text>

  <rect x="408" y="510" width="1082" height="60" rx="18" fill="#20262C"/>
  <rect x="424" y="522" width="128" height="36" rx="12" fill="#F0E7DB"/>
  <text x="455" y="545" fill="#161A1E" font-family="Arial, sans-serif" font-size="15" font-weight="700">Overview</text>
  <text x="587" y="545" fill="#9CA5AF" font-family="Arial, sans-serif" font-size="15">LLM</text>
  <text x="662" y="545" fill="#9CA5AF" font-family="Arial, sans-serif" font-size="15">MCP</text>
  <text x="744" y="545" fill="#9CA5AF" font-family="Arial, sans-serif" font-size="15">Skills</text>
  <text x="837" y="545" fill="#9CA5AF" font-family="Arial, sans-serif" font-size="15">Env Vars</text>
  <text x="950" y="545" fill="#9CA5AF" font-family="Arial, sans-serif" font-size="15">CLAUDE.md</text>
  <text x="1088" y="545" fill="#9CA5AF" font-family="Arial, sans-serif" font-size="15">Import / Export</text>

  <rect x="408" y="594" width="690" height="316" rx="24" fill="#222930"/>
  <text x="438" y="634" fill="#8D96A0" font-family="Arial, sans-serif" font-size="13" letter-spacing="2">OVERVIEW PANEL</text>
  <text x="438" y="674" fill="#F5EEE5" font-family="Georgia, serif" font-size="34" font-weight="700">Environment Notes</text>
  <rect x="438" y="700" width="630" height="2" fill="#323B44"/>
  <text x="438" y="738" fill="#AAB2BA" font-family="Arial, sans-serif" font-size="17"># Workbench</text>
  <text x="438" y="772" fill="#AAB2BA" font-family="Arial, sans-serif" font-size="17">- Default sandbox for new experiments</text>
  <text x="438" y="804" fill="#AAB2BA" font-family="Arial, sans-serif" font-size="17">- Includes filesystem MCP and frontend skills</text>
  <text x="438" y="836" fill="#AAB2BA" font-family="Arial, sans-serif" font-size="17">- Safe to export, not for production secrets</text>
  <rect x="438" y="864" width="144" height="30" rx="10" fill="#2F363D"/>
  <text x="476" y="884" fill="#E8E0D6" font-family="Arial, sans-serif" font-size="14">Edit Notes</text>

  <rect x="1122" y="594" width="368" height="316" rx="24" fill="#222930"/>
  <text x="1152" y="634" fill="#8D96A0" font-family="Arial, sans-serif" font-size="13" letter-spacing="2">QUICK ACTIONS</text>
  <rect x="1152" y="664" width="308" height="56" rx="16" fill="#2B3239"/>
  <text x="1180" y="698" fill="#F1EADF" font-family="Arial, sans-serif" font-size="18">Test MCP connections</text>
  <rect x="1152" y="734" width="308" height="56" rx="16" fill="#2B3239"/>
  <text x="1180" y="768" fill="#F1EADF" font-family="Arial, sans-serif" font-size="18">Rotate API keys</text>
  <rect x="1152" y="804" width="308" height="56" rx="16" fill="#5A2D23"/>
  <text x="1180" y="838" fill="#FFE8DB" font-family="Arial, sans-serif" font-size="18">Delete environment</text>
  <text x="1152" y="892" fill="#8D96A0" font-family="Arial, sans-serif" font-size="14">危险操作放右下角，和主要编辑区分开</text>
</svg>
